<?xml version="1.0" encoding="UTF-8"?>
<!DOCTYPE svg PUBLIC "-//W3C//DTD SVG 1.1//EN" "http://www.w3.org/Graphics/SVG/1.1/DTD/svg11.dtd">
<!-- Creator: CorelDRAW 2020 (64-Bit) -->
<svg xmlns="http://www.w3.org/2000/svg" xml:space="preserve" width="210mm" height="297mm" version="1.1" style="shape-rendering:geometricPrecision; text-rendering:geometricPrecision; image-rendering:optimizeQuality; fill-rule:evenodd; clip-rule:evenodd"
viewBox="0 0 21000 29700"
 xmlns:xlink="http://www.w3.org/1999/xlink"
 xmlns:xodm="http://www.corel.com/coreldraw/odm/2003">
 <defs>
  <style type="text/css">
   <![CDATA[
    .fil2 {fill:#00599A}
    .fil1 {fill:#01AAE5}
    .fil0 {fill:#057AC2}
    .fil4 {fill:#41BFEF}
    .fil5 {fill:#62AAD3}
    .fil3 {fill:#82CFF6}
    .fil6 {fill:#AAE3EC}
   ]]>
  </style>
   <clipPath id="id0">
    <rect x="515.91" y="5726.49" width="19835.53" height="19900.37"/>
   </clipPath>
 </defs>
 <g id="Capa_x0020_1">
  <metadata id="CorelCorpID_0Corel-Layer"/>
  <g style="clip-path:url(#id0)">
   <image x="515.91" y="5726.49" width="19835.53" height="19900.37" xlink:href="anikama_Images\anikama_ImgID1.png"/>
  </g>
  <g id="_1167113863488">
   <path class="fil0" d="M548.33 18215.06l6547.02 -0.26c102.85,-23.78 -19.71,79.33 36.72,-12.74 18.3,-29.87 8.69,22.58 28.1,-78.28 -108.01,7.9 -32.92,17.58 -89.13,-56.16l-3226.65 -5594.62c850.14,110.92 6259.16,-83.73 6548.99,29.19l-29.83 66.68 -52.33 60.04 -12.29 33.54c53.08,0 44.27,8.98 12.29,-33.54 67.15,1.32 63.73,22.94 48.58,-31.29l3.75 -28.75 29.83 -66.68c102.95,35.83 30.21,-8.89 84.58,53.34 0.13,0.13 32.59,65.79 37.81,74.51 290.43,636.18 1408.25,2367.32 1786.5,3122.7l1404.92 2419.75c9.53,8.3 29.07,2.55 33.22,18.34 38.02,144.69 -2.53,-45.22 47.87,36.68 -4.38,-168.97 83.71,-259.51 157.13,-372.1l613.88 -1072.77c208.27,-391.59 532.12,-872.76 710.09,-1196.5 0.88,-1.59 3.89,-8.6 4.71,-10.39 285.31,-625.4 1087.7,-1843.77 1493.25,-2619.1 67.9,-129.78 157.17,-195.85 180.95,-359.18l51.92 -17.78c6.1,1.08 50.2,28.53 71.99,41.79l-39.28 -153.66c-348.29,-56.21 -5420.44,-23.1 -6435.44,-13.21 -122.85,1.2 -58.86,28.04 -138.25,-21.24l383.02 -689.68c138.84,-218.54 267.06,-465.23 399.54,-699.72 198.37,-351.15 445.04,-732.72 613.01,-1075.31l1214.07 -2128.78c38.04,-71.32 69.83,-101.36 112.74,-176.94 123.06,-216.82 462.41,-752.43 500.04,-882.51l-6554.06 15.46c55.69,0 32.41,10.01 32.41,-64.65 -90.44,0 -73.64,-18.02 -32.41,64.65 -134.58,23.52 -1.81,-36.09 -89.22,40.43l-662.2 1152.82c-283.02,435.55 -639.08,1124.22 -939.68,1620.78l-1031.2 1788.57c-144.83,269.91 -466.38,751.76 -578.53,1004.8l-1165.6 2047.89c-45.74,70.4 -65.31,117.64 -105.04,186.67l-2019.92 3493.22c-10.64,39.51 -17.02,65.07 -20.29,81.08l0 23.62c6.27,-2.37 21.83,-27.5 32.42,-20.71z"/>
   <path class="fil1" d="M13707.19 18172.49l1375.06 2416.85c75.39,127.19 119.83,231.2 199.82,351.17l1072.02 1877.39c55.89,96.06 63.29,76.84 118.78,172.92 76.52,132.52 117.8,221.19 197.88,353.11l136.52 253.5c52.95,74.35 14.84,47.72 76.2,55.84 115.97,119.16 65.3,126.49 162.05,193.61 114.11,-121.99 69.41,-117.13 110.6,-178.7 61.74,-92.25 23.53,-35.91 83.86,-81.75 57.73,-32.86 164.8,-233.03 205.69,-314.36l2426.29 -4185.56c75.77,-119.78 118.49,-249.45 188.94,-362.31 257.29,-412.16 366.66,-424.79 179.9,-732.85l-807.98 -1396.05c-69.72,-128.06 -130.68,-220.59 -205.55,-345.44 -75.96,-126.68 -124.13,-230.09 -198.18,-352.81l-621.26 -1064.11c-73.22,-126.17 -113.92,-233.22 -195.45,-355.54 -146.6,-219.94 -265.07,-454.57 -407.73,-694.25l-714.66 -1238.46c-79.73,-159.55 29.93,-56.14 -69.51,-141.53l12.44 64.66 39.28 153.66c-21.79,-13.26 -65.89,-40.71 -71.99,-41.79l-51.92 17.78c-23.78,163.33 -113.05,229.4 -180.95,359.18 -405.55,775.33 -1207.94,1993.7 -1493.25,2619.1 -0.82,1.79 -3.83,8.8 -4.71,10.39 -177.97,323.74 -501.82,804.91 -710.09,1196.5l-613.88 1072.77c-73.42,112.59 -161.51,203.13 -157.13,372.1 -50.4,-81.9 -9.85,108.01 -47.87,-36.68 -4.15,-15.79 -23.69,-10.04 -33.22,-18.34z"/>
   <path class="fil2" d="M7127.59 6795.89l6554.06 -15.46c-37.63,130.08 -376.98,665.69 -500.04,882.51 -42.91,75.58 -74.7,105.62 -112.74,176.94l-1214.07 2128.78c-167.97,342.59 -414.64,724.16 -613.01,1075.31 -132.48,234.49 -260.7,481.18 -399.54,699.72l-383.02 689.68c79.39,49.28 15.4,22.44 138.25,21.24 1015,-9.89 6087.15,-43 6435.44,13.21l-12.44 -64.66c-53.35,-156.03 -877.13,-1508.97 -1001.58,-1760.73l-2246.89 -3911.19 -6612.01 0c0,74.66 23.28,64.65 -32.41,64.65z"/>
   <path class="fil3" d="M7095.35 18214.8l-6547.02 0.26c24.4,138.93 125.99,275.75 194.51,378.54l799.51 1404.45c50.92,80.87 64.99,85.55 106.68,152.62l1940.06 3375.33c52.43,86.46 176.78,294.87 200.34,383.07l64.82 0c36.07,-135.09 205.07,-370.84 287.44,-522.83l2757.92 -4761.43c72.36,-116.27 145.46,-276.11 195.74,-410.01z"/>
   <path class="fil2" d="M7160.17 18123.78c121.71,-123.12 111.32,-158.9 195.86,-306.57l2065.56 -3573.97c109.45,-200.96 875.05,-1446.76 877.34,-1580.79l12.29 -33.54 52.33 -60.04 29.83 -66.68c-289.83,-112.92 -5698.85,81.73 -6548.99,-29.19l3226.65 5594.62c56.21,73.74 -18.88,64.06 89.13,56.16z"/>
   <path class="fil1" d="M7775.81 19177.06c-33.16,134.29 182.62,490.83 260.74,612.28 295.33,459.17 732.54,1321.87 1020.7,1765.42 335.08,515.81 1102.07,1985.55 1373.34,2341.3l2684.33 -4761.36 56.8 94.38c35.02,58.66 22.69,36.57 54.53,90.23l27.19 40.49 -27.19 -40.49c-59.39,-135.45 -1.81,-97.74 -111.33,-184.61 -13.89,-89.07 -177.43,-364.58 -241.29,-452.94l-268.41 -477.03 -4343.08 0c-29.88,128.25 -300.33,552.92 -389.11,713.01 -152.8,275.49 -123.87,149.73 -97.22,259.32z"/>
   <path class="fil0" d="M10430.59 23896.06c64.6,83.76 145.5,64.64 326.91,61.85l5090.32 -48.84 -793.53 -1411.92c-66.62,-109.73 -95.99,-185.12 -161.1,-292.65l-991.78 -1698.35c-151.99,-296.7 -526.32,-867.04 -647.97,-1146.35l-27.19 -40.49c-31.84,-53.66 -19.51,-31.57 -54.53,-90.23l-56.8 -94.38 -2684.33 4761.36z"/>
   <path class="fil4" d="M15847.82 23909.07l-5090.32 48.84c-181.41,2.79 -262.31,21.91 -326.91,-61.85 -271.27,-355.75 -1038.26,-1825.49 -1373.34,-2341.3 -288.16,-443.55 -725.37,-1306.25 -1020.7,-1765.42 -78.12,-121.45 -293.9,-477.99 -260.74,-612.28l-2423.88 4155.39c-59.95,108.46 -99.55,187.02 -162.88,290.88 -50.54,82.89 -144.34,229.49 -168,318.16 3652.65,0 7204.25,32.4 10857.67,32.4l-30.9 -64.82z"/>
   <path class="fil4" d="M10285.4 14699.14l-40.41 63.34 -6.79 48.15 -58.12 50.19 -29.69 69.92 -41.13 55.91c-27.06,70.98 -22.65,121.98 -93.72,152.83 -31.16,118.71 7.13,109.11 -72.01,139.07l-51.45 93.68 -46.65 55.47c-26.98,99.96 -49.01,131.15 -101.16,209.81 -55.72,84.04 -72.5,127.55 -117.94,209.13 -76.84,137.99 -152.34,258.29 -220.04,372.61l-28.09 67.63c0,51.55 13.67,40.05 -35.34,40.05l-250.89 451.13 -41.98 56.26c-32.07,118.62 -35.29,108.42 -95.04,168.79 48.67,64.3 -72.2,40.87 121.16,65 48.02,6.01 138.48,-0.6 189.63,-1.87l1167.94 0.97c175.23,0.03 1448.65,24.29 1491.06,-17.28l-3.7 -44.4c-24.12,-133.51 -894.97,-1599.67 -1015.67,-1800.54 -44.37,-73.83 -45.73,-81.72 -78.65,-148.25l-263.4 -417.38c-78.87,0 -52.82,16.63 -52.82,-73.77 -57.16,-65.27 -23.84,-30.62 -130.94,-51.81l-94.16 185.36z"/>
   <path class="fil3" d="M10285.4 14699.14c-56.9,30.63 -53.27,-37.65 -40.41,63.34 -58.46,10.24 -44.76,-2 -6.79,48.15 -78.89,13.12 -70.39,-49.99 -58.12,50.19 -45.9,30.4 -46.31,-31.91 -29.69,69.92 -52.01,25.65 -40.42,-42.66 -41.13,55.91 -66.65,62.22 -70.56,62.38 -93.72,152.83l-72.01 139.07c-71.78,69.29 -41.69,12.44 -51.45,93.68 -56.97,44.17 -33.95,-23 -46.65,55.47 -99.67,132.01 -151.48,256.58 -235.59,397.47 -44.64,74.8 -62.48,109.13 -105.99,185.92 -49.98,88.18 -87.43,108.28 -97.56,208.16 -50.78,33.8 -55.4,-22.48 -28.09,67.63 -57.59,6.95 -51.69,-10.44 -35.34,40.05l-151.35 214.45c-120.55,216.01 -102.53,137.07 -99.54,236.68 -62.69,24.43 -64.81,-41.8 -41.98,56.26 -87.34,66.73 -88.24,45.48 -95.04,168.79 -53.86,54.67 -44.59,-78.3 -44.59,99.65l3079.04 0c0,-131.67 12.6,-15.96 -64.66,-52.83 37.38,-51.47 57.39,-44.4 -3.7,-44.4l3.7 44.4c-42.41,41.57 -1315.83,17.31 -1491.06,17.28l-1167.94 -0.97c-51.15,1.27 -141.61,7.88 -189.63,1.87 -193.36,-24.13 -72.49,-0.7 -121.16,-65 59.75,-60.37 62.97,-50.17 95.04,-168.79l41.98 -56.26 250.89 -451.13c49.01,0 35.34,11.5 35.34,-40.05l28.09 -67.63c67.7,-114.32 143.2,-234.62 220.04,-372.61 45.44,-81.58 62.22,-125.09 117.94,-209.13 52.15,-78.66 74.18,-109.85 101.16,-209.81l46.65 -55.47 51.45 -93.68c79.14,-29.96 40.85,-20.36 72.01,-139.07 71.07,-30.85 66.66,-81.85 93.72,-152.83l41.13 -55.91 29.69 -69.92 58.12 -50.19 6.79 -48.15 40.41 -63.34 94.16 -185.36c107.1,21.19 73.78,-13.46 130.94,51.81 0,90.4 -26.05,73.77 52.82,73.77 0,-82.14 21.71,-60.91 -52.82,-73.77 5.61,-113.24 -8.54,-18.6 -44.41,-152.95l-64.82 0c-46.93,201.41 -107.31,150.26 -115.87,286.5z"/>
   <path class="fil5" d="M16883.47 23653.27l55.68 139.9c71.44,135.99 52.46,125.27 138.79,148.32 12.74,-57.34 -9.09,-8.46 20.49,-77.05l141.55 -278.01c-60.33,45.84 -22.12,-10.5 -83.86,81.75 -41.19,61.57 3.51,56.71 -110.6,178.7 -96.75,-67.12 -46.08,-74.45 -162.05,-193.61z"/>
   <path class="fil6" d="M10363.55 12568.87l-3.75 28.75c24.45,-49.91 29.4,-2.81 73.88,-32.4l82.09 64.82c-5.22,-8.72 -37.68,-74.38 -37.81,-74.51 -54.37,-62.23 18.37,-17.51 -84.58,-53.34l-29.83 66.68z"/>
  </g>
 </g>
</svg>
